<svg xmlns="http://www.w3.org/2000/svg" viewBox="0 0 512.755 512.755"><radialGradient id="a" cx="149.02" cy="787.904" r="516.91" gradientTransform="translate(0 -276.95)" gradientUnits="userSpaceOnUse"><stop offset="0" stop-color="#ffd676"/><stop offset=".246" stop-color="#f2a454"/><stop offset=".379" stop-color="#f05c3c"/><stop offset=".7" stop-color="#c22f86"/><stop offset=".957" stop-color="#6666ad"/><stop offset=".985" stop-color="#5c6cb2"/></radialGradient><path d="M512.746 400.132c0 61.908-49.94 112.097-111.551 112.097H111.567C49.94 512.229 0 462.04 0 400.132V112.623C0 50.715 49.94.526 111.567.526h289.637c61.611 0 111.551 50.189 111.551 112.097v287.508l-.009.001z" fill="url(#a)"/><linearGradient id="b" gradientUnits="userSpaceOnUse" x1="-5.895" y1="311.558" x2="299.045" y2="569.409" gradientTransform="translate(0 -276.95)"><stop offset="0" stop-color="#ffd676"/><stop offset=".246" stop-color="#f2a454"/><stop offset=".379" stop-color="#f05c3c"/><stop offset=".7" stop-color="#c22f86"/><stop offset=".957" stop-color="#6666ad"/><stop offset=".985" stop-color="#5c6cb2"/></linearGradient><path d="M339.183 71.672H173.564c-56.261 0-101.903 45.634-101.903 101.911V339.17c0 56.277 45.642 101.911 101.903 101.911h165.611c56.277 0 101.903-45.634 101.903-101.911V173.576c0-56.27-45.626-101.904-101.895-101.904z" fill="url(#b)"/><linearGradient id="c" gradientUnits="userSpaceOnUse" x1="343.146" y1="918.533" x2="278.886" y2="467.353" gradientTransform="translate(0 -276.95)"><stop offset="0" stop-color="#ffd676"/><stop offset=".246" stop-color="#f2a454"/><stop offset=".379" stop-color="#f05c3c"/><stop offset=".7" stop-color="#c22f86"/><stop offset=".957" stop-color="#6666ad"/><stop offset=".985" stop-color="#5c6cb2"/></linearGradient><path d="M339.183 71.672H173.564c-28.556 0-54.35 11.792-72.841 30.733l305.67 313.229c21.214-18.676 34.685-45.963 34.685-76.472V173.576c0-56.27-45.626-101.904-101.895-101.904z" fill="url(#c)"/><radialGradient id="d" cx="373.065" cy="434.661" r="19.957" gradientTransform="translate(0 -276.95)" gradientUnits="userSpaceOnUse"><stop offset="0" stop-color="#ffd676"/><stop offset=".246" stop-color="#f2a454"/><stop offset=".379" stop-color="#f05c3c"/><stop offset=".7" stop-color="#c22f86"/><stop offset=".957" stop-color="#6666ad"/><stop offset=".985" stop-color="#5c6cb2"/></radialGradient><path d="M393.026 157.711c0 11.029-8.957 19.953-19.953 19.953-11.013 0-19.969-8.924-19.969-19.953 0-11.021 8.957-19.953 19.969-19.953 10.989-.008 19.953 8.932 19.953 19.953z" opacity=".4" fill="url(#d)"/><radialGradient id="e" cx="286.04" cy="788.385" r="322.18" gradientTransform="translate(0 -276.95)" gradientUnits="userSpaceOnUse"><stop offset="0" stop-color="#ffd676"/><stop offset=".246" stop-color="#f2a454"/><stop offset=".379" stop-color="#f05c3c"/><stop offset=".7" stop-color="#c22f86"/><stop offset=".957" stop-color="#6666ad"/><stop offset=".985" stop-color="#5c6cb2"/></radialGradient><path d="M512.746 400.132v-19.977l-186.271-186.28-133.32 131.93L379.571 512.22h21.624c61.612 0 111.551-50.181 111.551-112.088z" opacity=".4" fill="url(#e)"/><g opacity=".3"><radialGradient id="f" cx="271.671" cy="548.622" r="196.756" gradientTransform="translate(0 -276.95)" gradientUnits="userSpaceOnUse"><stop offset="0" stop-color="#ffd676"/><stop offset=".246" stop-color="#f2a454"/><stop offset=".379" stop-color="#f05c3c"/><stop offset=".7" stop-color="#c22f86"/><stop offset=".957" stop-color="#6666ad"/><stop offset=".985" stop-color="#5c6cb2"/></radialGradient><path d="M354.477 468.426H188.866c-62.832 0-113.953-51.12-113.953-113.961V188.878c0-62.832 51.112-113.961 113.953-113.961h165.611c62.832 0 113.953 51.12 113.953 113.961v165.587c-.008 62.832-51.121 113.961-113.953 113.961zM188.866 99.016c-49.546 0-89.854 40.308-89.854 89.862v165.587c0 49.546 40.308 89.862 89.854 89.862h165.611c49.546 0 89.854-40.308 89.854-89.862V188.878c0-49.546-40.308-89.862-89.854-89.862H188.866z" fill="url(#f)"/></g><g opacity=".3"><radialGradient id="g" cx="271.667" cy="548.621" r="93.867" gradientTransform="translate(0 -276.95)" gradientUnits="userSpaceOnUse"><stop offset="0" stop-color="#ffd676"/><stop offset=".246" stop-color="#f2a454"/><stop offset=".379" stop-color="#f05c3c"/><stop offset=".7" stop-color="#c22f86"/><stop offset=".957" stop-color="#6666ad"/><stop offset=".985" stop-color="#5c6cb2"/></radialGradient><path d="M271.667 365.534c-51.755 0-93.871-42.108-93.871-93.863s42.116-93.863 93.871-93.863 93.871 42.108 93.871 93.863-42.108 93.863-93.871 93.863zm0-163.627c-38.469 0-69.772 31.296-69.772 69.764s31.296 69.764 69.772 69.764 69.772-31.296 69.772-69.764-31.303-69.764-69.772-69.764z" fill="url(#g)"/></g><path d="M339.183 453.123H173.564c-62.832 0-113.953-51.12-113.953-113.961V173.576c0-62.832 51.112-113.961 113.953-113.961h165.611c62.832 0 113.953 51.12 113.953 113.961v165.587c-.001 62.84-51.113 113.96-113.945 113.96zM173.564 83.721c-49.546 0-89.854 40.308-89.854 89.862V339.17c0 49.546 40.308 89.862 89.854 89.862h165.611c49.546 0 89.854-40.308 89.854-89.862V173.576c0-49.546-40.308-89.862-89.854-89.862H173.564v.007z" fill="#fff"/><linearGradient id="h" gradientUnits="userSpaceOnUse" x1="419.47" y1="396.414" x2="220.01" y2="563.854" gradientTransform="translate(0 -276.95)"><stop offset="0" stop-color="#ffd676"/><stop offset=".246" stop-color="#f2a454"/><stop offset=".379" stop-color="#f05c3c"/><stop offset=".7" stop-color="#c22f86"/><stop offset=".957" stop-color="#6666ad"/><stop offset=".985" stop-color="#5c6cb2"/></linearGradient><circle cx="256.37" cy="256.38" r="81.82" fill="url(#h)"/><linearGradient id="i" gradientUnits="userSpaceOnUse" x1="293.218" y1="688.862" x2="222.218" y2="398.712" gradientTransform="translate(0 -276.95)"><stop offset="0" stop-color="#ffd676"/><stop offset=".246" stop-color="#f2a454"/><stop offset=".379" stop-color="#f05c3c"/><stop offset=".7" stop-color="#c22f86"/><stop offset=".957" stop-color="#6666ad"/><stop offset=".985" stop-color="#5c6cb2"/></linearGradient><path d="M174.552 256.378c0 45.184 36.637 81.814 81.822 81.814s81.822-36.621 81.822-81.822l-163.644.008z" fill="url(#i)"/><g fill="#fff"><path d="M256.373 350.24c-51.755 0-93.871-42.108-93.871-93.863s42.116-93.863 93.871-93.863 93.871 42.108 93.871 93.863-42.116 93.863-93.871 93.863zm0-163.627c-38.469 0-69.772 31.296-69.772 69.764s31.296 69.764 69.772 69.764 69.772-31.296 69.772-69.764-31.303-69.764-69.772-69.764zM384.021 148.706c0 11.029-8.957 19.953-19.953 19.953-11.013 0-19.969-8.924-19.969-19.953 0-11.021 8.957-19.953 19.969-19.953 10.989-.008 19.953 8.932 19.953 19.953z"/></g></svg>